# xmcd
#
# Track frame offsets:
#	150
#	10865
#	29509
#	50391
#	62449
#	81531
#	91923
#	117015
#	129103
#	144004
#	183584
#	190658
#	203308
#	220297
#	253929
#
# Disc length: 4199 seconds
#
# Revision: 0
# Processed by: cddbd v1.5.2PL0 Copyright (c) Steve Scherf et al.
# Submitted via: dBpowerAMP V4.0
#
DISCID=c210650f
DTITLE=STEVIE RAY VAUGHAN and THE 2BLE TROUBLE - In Step
DYEAR=2001
DGENRE=Blues
TTITLE0=The House Is Rockin'
TTITLE1=Crossfire
TTITLE2=Tightrope
TTITLE3=Let Me Love You Baby
TTITLE4=Leave My Girl Alone
TTITLE5=Travis Walk
TTITLE6=Wall Of Denial
TTITLE7=Scratch-N-Sniff
TTITLE8=Love Me Darling
TTITLE9=Riviera Paradise
TTITLE10=SRV Speaks
TTITLE11=The House Is Rockin'(Live)
TTITLE12=Let Me Love You Baby(Live)
TTITLE13=Texas Flood(Live)
TTITLE14=Life Without You(Live)
EXTD=
EXTT0=
EXTT1=
EXTT2=
EXTT3=
EXTT4=
EXTT5=
EXTT6=
EXTT7=
EXTT8=
EXTT9=
EXTT10=
EXTT11=
EXTT12=
EXTT13=
EXTT14=
PLAYORDER=
